grf
version=1
nRows=17
nColumns=37
inDegrees=no
endheader
time	ground_force_1_vx	ground_force_1_vy	ground_force_1_vz	ground_force_1_px	ground_force_1_py	ground_force_1_pz	ground_moment_1_mx	ground_moment_1_my	ground_moment_1_mz	ground_force_2_vx	ground_force_2_vy	ground_force_2_vz	ground_force_2_px	ground_force_2_py	ground_force_2_pz	ground_moment_2_mx	ground_moment_2_my	ground_moment_2_mz	ground_force_3_vx	ground_force_3_vy	ground_force_3_vz	ground_force_3_px	ground_force_3_py	ground_force_3_pz	ground_moment_3_mx	ground_moment_3_my	ground_moment_3_mz	ground_force_4_vx	ground_force_4_vy	ground_force_4_vz	ground_force_4_px	ground_force_4_py	ground_force_4_pz	ground_moment_4_mx	ground_moment_4_my	ground_moment_4_mz
      0.00000000	      0.00000000	     -0.00000000	      0.00000000	      0.00000000	      0.00000000	      0.00000000	      0.00000000	      0.00000000	      0.00000000	      3.82533264	     54.09144592	   -402.80859375	   -354.96539435	  -1132.26764224	      0.00000000	      0.00000000	      0.00000000	   1484.30917428	     -0.85493518	    -58.11566918	   -382.33242798	   -353.45017093	   -719.82639577	      0.00000000	     -0.00000000	     -0.00000000	  -3158.92505300	      0.00000000	     -0.00000000	      0.00000000	      0.00000000	      0.00000000	      0.00000000	      0.00000000	      0.00000000	      0.00000000
      0.01000000	      0.00000000	     -0.00000000	      0.00000000	      0.00000000	      0.00000000	      0.00000000	      0.00000000	      0.00000000	      0.00000000	      4.09303617	     53.83476257	   -403.03640747	   -355.04056010	  -1133.43241895	      0.00000000	      0.00000000	      0.00000000	   1611.99296284	     -0.47552159	    -57.93902584	   -381.80413818	   -352.30042005	   -719.41261115	      0.00000000	      0.00000000	     -0.00000000	  -2991.92003255	      0.00000000	     -0.00000000	      0.00000000	      0.00000000	      0.00000000	      0.00000000	      0.00000000	      0.00000000	      0.00000000
      0.02000000	      0.00000000	     -0.00000000	      0.00000000	      0.00000000	      0.00000000	      0.00000000	      0.00000000	      0.00000000	      0.00000000	      3.87239027	     53.43137360	   -401.00308228	   -355.22611365	  -1132.44934977	      0.00000000	      0.00000000	      0.00000000	   1562.19034657	     -0.29788296	    -58.45841977	   -380.00189209	   -353.61317683	   -721.77086662	      0.00000000	      0.00000000	     -0.00000000	  -2911.49251064	      0.00000000	     -0.00000000	      0.00000000	      0.00000000	      0.00000000	      0.00000000	      0.00000000	      0.00000000	      0.00000000
      0.03000000	      0.00000000	     -0.00000000	      0.00000000	      0.00000000	      0.00000000	      0.00000000	      0.00000000	      0.00000000	      0.00000000	      3.62612414	     53.71415710	   -399.09332275	   -354.60147964	  -1132.03883849	      0.00000000	      0.00000000	      0.00000000	   1760.50967022	     -0.12487644	    -58.62467193	   -381.10809326	   -353.35876771	   -720.22504420	      0.00000000	      0.00000000	     -0.00000000	  -2973.14652506	      0.00000000	     -0.00000000	      0.00000000	      0.00000000	      0.00000000	      0.00000000	      0.00000000	      0.00000000	      0.00000000
      0.04000000	      0.00000000	     -0.00000000	      0.00000000	      0.00000000	      0.00000000	      0.00000000	      0.00000000	      0.00000000	      0.00000000	      3.03315735	     53.96091843	   -398.51083374	   -355.45688611	  -1132.76820550	      0.00000000	      0.00000000	      0.00000000	   1728.08370612	     -0.13046940	    -58.18841933	   -380.28765869	   -354.18595821	   -720.54928167	      0.00000000	      0.00000000	     -0.00000000	  -2891.76667935	      0.00000000	     -0.00000000	      0.00000000	      0.00000000	      0.00000000	      0.00000000	      0.00000000	      0.00000000	      0.00000000
      0.05000000	      0.00000000	     -0.00000000	      0.00000000	      0.00000000	      0.00000000	      0.00000000	      0.00000000	      0.00000000	      0.00000000	      2.44610763	     53.28963089	   -398.28912354	   -354.92903377	  -1133.25385342	      0.00000000	      0.00000000	      0.00000000	   1896.26709213	      0.07833979	    -58.13631058	   -380.33047485	   -354.41988374	   -719.85802967	      0.00000000	     -0.00000000	     -0.00000000	  -3007.77350267	      0.00000000	     -0.00000000	      0.00000000	      0.00000000	      0.00000000	      0.00000000	      0.00000000	      0.00000000	      0.00000000
      0.06000000	      0.00000000	     -0.00000000	      0.00000000	      0.00000000	      0.00000000	      0.00000000	      0.00000000	      0.00000000	      0.00000000	      2.03127050	     53.55709839	   -397.01495361	   -355.32829420	  -1132.43170170	      0.00000000	      0.00000000	      0.00000000	   1728.32863314	      0.11958940	    -58.29231263	   -379.79592896	   -354.73336439	   -720.25968845	      0.00000000	      0.00000000	     -0.00000000	  -2818.83682213	      0.00000000	     -0.00000000	      0.00000000	      0.00000000	      0.00000000	      0.00000000	      0.00000000	      0.00000000	      0.00000000
      0.07000000	      0.00000000	     -0.00000000	      0.00000000	      0.00000000	      0.00000000	      0.00000000	      0.00000000	      0.00000000	      0.00000000	      1.48593807	     53.33059311	   -392.31277466	   -354.00396988	  -1131.31045331	      0.00000000	      0.00000000	      0.00000000	   1796.55507001	      0.07848272	    -58.74410248	   -378.70883179	   -356.24414250	   -720.94532831	      0.00000000	     -0.00000000	     -0.00000000	  -2963.66221518	      0.00000000	     -0.00000000	      0.00000000	      0.00000000	      0.00000000	      0.00000000	      0.00000000	      0.00000000	      0.00000000
      0.08000000	      0.00000000	     -0.00000000	      0.00000000	      0.00000000	      0.00000000	      0.00000000	      0.00000000	      0.00000000	      0.00000000	      1.31787634	     53.80436707	   -393.98822021	   -354.95286938	  -1132.80383489	      0.00000000	      0.00000000	      0.00000000	   1922.60208181	      0.45369919	    -59.43039326	   -380.61520386	   -355.53570487	   -721.05924972	      0.00000000	      0.00000000	     -0.00000000	  -2855.16264197	      0.00000000	     -0.00000000	      0.00000000	      0.00000000	      0.00000000	      0.00000000	      0.00000000	      0.00000000	      0.00000000
      0.09000000	      0.00000000	     -0.00000000	      0.00000000	      0.00000000	      0.00000000	      0.00000000	      0.00000000	      0.00000000	      0.00000000	      1.15973663	     53.79452515	   -391.79614258	   -353.50533930	  -1132.38776680	      0.00000000	      0.00000000	      0.00000000	   1830.14468504	      0.49194441	    -59.59906010	   -382.47970581	   -357.07940021	   -721.35853047	      0.00000000	      0.00000000	     -0.00000000	  -2811.92947108	      0.00000000	     -0.00000000	      0.00000000	      0.00000000	      0.00000000	      0.00000000	      0.00000000	      0.00000000	      0.00000000
      0.10000000	      0.00000000	     -0.00000000	      0.00000000	      0.00000000	      0.00000000	      0.00000000	      0.00000000	      0.00000000	      0.00000000	      1.38738513	     53.73564911	   -389.20727539	   -354.03247411	  -1131.77165814	      0.00000000	      0.00000000	      0.00000000	   1860.21258977	      0.66099578	    -60.74539572	   -386.27984619	   -356.99453240	   -720.37881922	      0.00000000	      0.00000000	     -0.00000000	  -2716.62278958	      0.00000000	     -0.00000000	      0.00000000	      0.00000000	      0.00000000	      0.00000000	      0.00000000	      0.00000000	      0.00000000
      0.11000000	      0.00000000	     -0.00000000	      0.00000000	      0.00000000	      0.00000000	      0.00000000	      0.00000000	      0.00000000	      0.00000000	      1.20925283	     53.97336578	   -388.81185913	   -353.82911039	  -1132.47705502	      0.00000000	      0.00000000	      0.00000000	   1809.55516246	      1.46833955	    -61.51076520	   -388.29568481	   -357.78111497	   -720.08888768	      0.00000000	      0.00000000	     -0.00000000	  -2811.74681998	      0.00000000	     -0.00000000	      0.00000000	      0.00000000	      0.00000000	      0.00000000	      0.00000000	      0.00000000	      0.00000000
      0.12000000	      0.00000000	     -0.00000000	      0.00000000	      0.00000000	      0.00000000	      0.00000000	      0.00000000	      0.00000000	      0.00000000	      0.85215223	     53.70571518	   -389.04827881	   -353.41231380	  -1133.01534538	      0.00000000	      0.00000000	      0.00000000	   1697.37232320	      1.83338805	    -61.78596131	   -389.61437988	   -358.56166366	   -721.26847731	      0.00000000	      0.00000000	     -0.00000000	  -2732.51078443	      0.00000000	     -0.00000000	      0.00000000	      0.00000000	      0.00000000	      0.00000000	      0.00000000	      0.00000000	      0.00000000
      0.13000000	      0.00000000	     -0.00000000	      0.00000000	      0.00000000	      0.00000000	      0.00000000	      0.00000000	      0.00000000	      0.00000000	      0.63425225	     54.37931442	   -390.07028198	   -352.64942129	  -1133.17861662	      0.00000000	      0.00000000	      0.00000000	   1725.76174064	      2.67110846	    -63.00319695	   -391.12686157	   -358.67876517	   -719.90656818	      0.00000000	      0.00000000	     -0.00000000	  -2632.31785116	      0.00000000	     -0.00000000	      0.00000000	      0.00000000	      0.00000000	      0.00000000	      0.00000000	      0.00000000	      0.00000000
      0.14000000	      0.00000000	     -0.00000000	      0.00000000	      0.00000000	      0.00000000	      0.00000000	      0.00000000	      0.00000000	      0.00000000	      0.29675201	     54.92372513	   -388.45220947	   -352.50145112	  -1132.26628790	      0.00000000	      0.00000000	      0.00000000	   1875.50886365	      3.25313635	    -63.22864942	   -391.16458130	   -359.53221517	   -720.66377930	      0.00000000	      0.00000000	     -0.00000000	  -2614.82535453	      0.00000000	     -0.00000000	      0.00000000	      0.00000000	      0.00000000	      0.00000000	      0.00000000	      0.00000000	      0.00000000
      0.15000000	      0.00000000	     -0.00000000	      0.00000000	      0.00000000	      0.00000000	      0.00000000	      0.00000000	      0.00000000	      0.00000000	      0.23622946	     55.15246964	   -389.94879150	   -351.97127715	  -1132.28037583	      0.00000000	      0.00000000	      0.00000000	   1834.99167487	      3.98233238	    -63.68954503	   -391.01184082	   -359.25501261	   -719.51736840	      0.00000000	      0.00000000	     -0.00000000	  -2705.41076015	      0.00000000	     -0.00000000	      0.00000000	      0.00000000	      0.00000000	      0.00000000	      0.00000000	      0.00000000	      0.00000000
      0.16000000	      0.00000000	     -0.00000000	      0.00000000	      0.00000000	      0.00000000	      0.00000000	      0.00000000	      0.00000000	      0.00000000	      0.33456457	     55.81789398	   -391.23519897	   -351.29948459	  -1133.11382204	      0.00000000	      0.00000000	      0.00000000	   1733.62550351	      4.66336647	    -63.67993968	   -389.80392456	   -359.39137647	   -720.25662157	      0.00000000	      0.00000000	     -0.00000000	  -2552.97018294	      0.00000000	     -0.00000000	      0.00000000	      0.00000000	      0.00000000	      0.00000000	      0.00000000	      0.00000000	      0.00000000
